<svg width="108" height="17" viewBox="0 0 108 17" fill="none" xmlns="http://www.w3.org/2000/svg">
<path d="M11.166 2.71875C10.3392 2.71875 9.45703 2.80013 8.51953 2.96289C7.58854 3.11914 6.80404 3.29492 6.16602 3.49023C5.52799 3.68555 4.94857 3.86458 4.42773 4.02734C3.9069 4.18359 3.5944 4.26172 3.49023 4.26172C3.13216 4.26172 2.95312 4.13802 2.95312 3.89062C2.95312 3.63672 3.14844 3.37956 3.53906 3.11914C4.79557 2.2793 6.2181 1.65104 7.80664 1.23438C9.40169 0.817708 10.9251 0.609375 12.377 0.609375C13.8353 0.609375 15.0267 0.729818 15.9512 0.970703C16.8822 1.21159 17.6504 1.54036 18.2559 1.95703C18.8613 2.3737 19.3594 2.88151 19.75 3.48047C20.4792 4.59375 20.8438 5.98372 20.8438 7.65039C20.8438 9.4082 20.362 11.026 19.3984 12.5039C18.3372 14.125 16.9342 15.2513 15.1895 15.8828C14.2389 16.2214 13.2201 16.3906 12.1328 16.3906C10.401 16.3906 9.04688 16.1172 8.07031 15.5703C7.79688 15.8372 7.46484 16.0065 7.07422 16.0781C6.68359 16.1562 6.14323 16.1953 5.45312 16.1953C4.76302 16.1953 4.10221 16.14 3.4707 16.0293C2.8457 15.9186 2.29883 15.7786 1.83008 15.6094C1.36133 15.4336 0.977214 15.2415 0.677734 15.0332C0.378255 14.8184 0.228516 14.6263 0.228516 14.457C0.228516 14.2878 0.296875 14.1576 0.433594 14.0664C0.563802 13.9688 0.713542 13.9199 0.882812 13.9199C1.46875 13.9199 1.89844 13.8288 2.17188 13.6465C2.45182 13.4577 2.73503 13.1061 3.02148 12.5918C3.31445 12.0775 3.58464 11.4915 3.83203 10.834C4.07943 10.1764 4.31055 9.54492 4.52539 8.93945C4.74674 8.33398 4.9974 7.72201 5.27734 7.10352C5.88281 5.74284 6.64128 4.84766 7.55273 4.41797C8.00195 4.20964 8.57487 4.05013 9.27148 3.93945C9.9681 3.82227 10.668 3.76367 11.3711 3.76367C12.0742 3.76367 12.4258 3.92643 12.4258 4.25195C12.4258 4.49935 12.276 4.85742 11.9766 5.32617C11.6836 5.79492 11.3678 6.52083 11.0293 7.50391C10.6908 8.48698 10.3132 9.65885 9.89648 11.0195C9.48633 12.3802 9.16732 13.3763 8.93945 14.0078L8.77344 14.4375C8.97526 14.457 9.29102 14.4668 9.7207 14.4668C10.1504 14.4668 10.6289 14.3757 11.1562 14.1934C11.6901 14.0111 12.1523 13.7637 12.543 13.4512C12.9336 13.1322 13.2852 12.7578 13.5977 12.3281C13.9167 11.8984 14.1771 11.4427 14.3789 10.9609C14.5872 10.4727 14.7598 9.95833 14.8965 9.41797C15.1504 8.42188 15.2773 7.35417 15.2773 6.21484C15.2773 3.88411 13.9069 2.71875 11.166 2.71875ZM37.543 13.2168C37.7708 13.2168 37.8848 13.3242 37.8848 13.5391C37.8848 13.7474 37.7285 13.9427 37.416 14.125C37.11 14.3008 36.7292 14.4928 36.2734 14.7012C35.8177 14.903 35.1895 15.1439 34.3887 15.4238C32.5462 16.0684 30.4661 16.3906 28.1484 16.3906C23.7474 16.3906 21.5469 15.0365 21.5469 12.3281C21.5469 11.0065 21.9635 9.83464 22.7969 8.8125C23.6367 7.78385 24.7598 6.99935 26.166 6.45898C27.5723 5.91211 29.1055 5.63867 30.7656 5.63867C32.4258 5.63867 33.64 5.89583 34.4082 6.41016C35.1829 6.92448 35.5703 7.63086 35.5703 8.5293C35.5703 9.45378 35.1992 10.209 34.457 10.7949C33.7214 11.3809 32.7415 11.8171 31.5176 12.1035C30.2871 12.39 28.8776 12.5918 27.2891 12.709C27.3932 13.7181 28.1159 14.3464 29.457 14.5938C29.8021 14.6523 30.1667 14.6816 30.5508 14.6816C32.0742 14.6816 34.2715 14.2227 37.1426 13.3047C37.3184 13.2461 37.4518 13.2168 37.543 13.2168ZM27.2988 11.6348C28.4316 11.3223 29.3268 10.8438 29.9844 10.1992C30.6419 9.55469 30.9707 8.77669 30.9707 7.86523C30.9707 7.62435 30.8926 7.43229 30.7363 7.28906C30.5801 7.14583 30.3424 7.07422 30.0234 7.07422C29.7109 7.07422 29.3822 7.21094 29.0371 7.48438C28.6986 7.75781 28.4121 8.11589 28.1777 8.55859C27.6829 9.47656 27.39 10.502 27.2988 11.6348ZM39.3203 5.95117L44.4863 5.84375C44.7012 5.84375 44.8086 5.98698 44.8086 6.27344C44.8086 6.42969 44.75 6.58594 44.6328 6.74219C44.0534 7.49089 43.5846 8.34049 43.2266 9.29102C42.875 10.2415 42.6992 11.1693 42.6992 12.0742C42.6992 12.543 42.7969 12.9531 42.9922 13.3047C43.1875 13.6562 43.4251 13.832 43.7051 13.832C44.2064 13.832 44.776 13.4154 45.4141 12.582C46.0586 11.7487 46.6217 10.7721 47.1035 9.65234C47.5918 8.53255 47.9076 7.52995 48.0508 6.64453C48.0898 6.40365 48.1484 6.23438 48.2266 6.13672C48.3047 6.03906 48.4642 5.99023 48.7051 5.99023L52.5234 5.88281C52.7578 5.88281 52.875 5.97396 52.875 6.15625V6.29297C52.875 7.08724 52.5527 8.07031 51.9082 9.24219C52.1035 9.27474 52.3379 9.29102 52.6113 9.29102C53.6335 9.29102 54.5645 9.05664 55.4043 8.58789C55.5866 8.48372 55.7396 8.43164 55.8633 8.43164C56.1237 8.43164 56.2539 8.55208 56.2539 8.79297C56.2539 9.02734 56.1139 9.25195 55.834 9.4668C54.8965 10.1829 53.6335 10.541 52.0449 10.541C51.6738 10.541 51.3711 10.5215 51.1367 10.4824C51.0911 10.5605 51.0163 10.6712 50.9121 10.8145C50.222 11.778 49.2259 12.7253 47.9238 13.6562C46.6283 14.5872 45.3294 15.3294 44.0273 15.8828C42.7253 16.4362 41.6608 16.7129 40.834 16.7129C40.2285 16.7129 39.6068 16.4883 38.9688 16.0391C37.6927 15.1471 37.0547 13.7799 37.0547 11.9375C37.0547 11.1497 37.2012 10.2122 37.4941 9.125C37.7936 8.03776 38.1289 7.16536 38.5 6.50781C38.7083 6.14323 38.9818 5.95768 39.3203 5.95117ZM61.0684 12.8555C61.6868 13.5977 62.6569 13.9688 63.9785 13.9688C65.2155 13.9688 66.498 13.7604 67.8262 13.3438C68.2624 13.207 68.5846 13.1387 68.793 13.1387C69.1706 13.1387 69.3594 13.2461 69.3594 13.4609C69.3594 13.7734 69.112 14.1087 68.6172 14.4668C68.1224 14.8184 67.4974 15.1341 66.7422 15.4141C65.987 15.694 65.1309 15.9251 64.1738 16.1074C63.2233 16.2962 62.3184 16.3906 61.459 16.3906C59.9355 16.3906 58.5944 16.153 57.4355 15.6777C56.2767 15.2025 55.3783 14.5254 54.7402 13.6465C54.1022 12.7611 53.7832 11.7975 53.7832 10.7559C53.7832 9.70768 53.959 8.74089 54.3105 7.85547C54.6621 6.96354 55.1374 6.15951 55.7363 5.44336C56.3418 4.72721 57.0449 4.06315 57.8457 3.45117C58.653 2.83919 59.5026 2.32812 60.3945 1.91797C62.3021 1.04557 64.1315 0.609375 65.8828 0.609375C67.6341 0.609375 68.9948 0.970703 69.9648 1.69336C70.9349 2.40951 71.4199 3.28841 71.4199 4.33008C71.4199 5.46289 71.0846 6.45573 70.4141 7.30859C70.0951 7.72526 69.6686 8.05729 69.1348 8.30469C68.6074 8.55208 68.0117 8.67578 67.3477 8.67578C66.9049 8.67578 66.5273 8.61393 66.2148 8.49023C65.6224 8.25586 65.3262 7.92057 65.3262 7.48438C65.3262 7.33464 65.4954 6.91146 65.834 6.21484C66.179 5.51823 66.5241 4.80208 66.8691 4.06641C67.2142 3.32422 67.3867 2.81641 67.3867 2.54297C67.3867 2.26302 67.2695 2.07096 67.0352 1.9668C66.8008 1.86263 66.4655 1.81055 66.0293 1.81055C65.5996 1.81055 65.1113 1.97656 64.5645 2.30859C64.0176 2.63411 63.4902 3.08333 62.9824 3.65625C62.4746 4.22266 62.0091 4.85417 61.5859 5.55078C61.1628 6.2474 60.8242 7.0026 60.5703 7.81641C60.3164 8.6237 60.1895 9.34961 60.1895 9.99414C60.1895 10.6387 60.2611 11.1888 60.4043 11.6445C60.554 12.1003 60.7754 12.5039 61.0684 12.8555ZM73.4512 15.3457C72.2272 14.61 71.6152 13.4935 71.6152 11.9961C71.6152 11.2148 71.7747 10.4824 72.0938 9.79883C72.4193 9.10872 72.862 8.51302 73.4219 8.01172C73.9883 7.51042 74.6458 7.08073 75.3945 6.72266C76.8919 6 78.6074 5.63867 80.541 5.63867C84.3431 5.63867 86.3971 6.8431 86.7031 9.25195C87.1589 9.40169 87.6276 9.47656 88.1094 9.47656C88.5977 9.47656 89.0046 9.44076 89.3301 9.36914C89.6556 9.29753 89.9616 9.1901 90.248 9.04688C90.541 8.90365 90.7493 8.83203 90.873 8.83203C91.1204 8.83203 91.2441 8.95247 91.2441 9.19336C91.2441 9.43424 91.0521 9.6849 90.668 9.94531C89.9453 10.4401 88.9883 10.6875 87.7969 10.6875C87.3477 10.6875 86.9831 10.6647 86.7031 10.6191C86.4948 12.2598 85.6484 13.6237 84.1641 14.7109C83.4544 15.2318 82.582 15.6419 81.5469 15.9414C80.5182 16.2409 79.4505 16.3906 78.3438 16.3906C77.2435 16.3906 76.2995 16.3027 75.5117 16.127C74.724 15.9577 74.0371 15.6973 73.4512 15.3457ZM76.9961 12.8555C76.9961 14.0599 77.4355 14.6621 78.3145 14.6621C78.8743 14.6621 79.3952 14.3561 79.877 13.7441C80.3652 13.1322 80.7428 12.3737 81.0098 11.4688C81.2832 10.5638 81.4199 9.64258 81.4199 8.70508C81.4199 7.76107 81.0911 7.28906 80.4336 7.28906C79.8607 7.28906 79.304 7.55924 78.7637 8.09961C78.2298 8.63997 77.8001 9.3431 77.4746 10.209C77.1556 11.0684 76.9961 11.9505 76.9961 12.8555ZM107.572 13.2168C107.813 13.2168 107.934 13.3307 107.934 13.5586C107.934 13.7799 107.813 13.9753 107.572 14.1445C107.338 14.3138 106.99 14.5091 106.527 14.7305C106.065 14.9453 105.489 15.1829 104.799 15.4434C104.115 15.7038 103.321 15.9251 102.416 16.1074C101.518 16.2962 100.658 16.3906 99.8379 16.3906C97.9043 16.3906 96.9375 15.9479 96.9375 15.0625C96.9375 14.4896 97.263 13.4674 97.9141 11.9961C98.5716 10.5182 98.9004 9.52214 98.9004 9.00781C98.9004 8.42839 98.4479 8.13867 97.543 8.13867C97.1328 8.13867 96.6673 8.19076 96.1465 8.29492C95.8991 9.16732 95.4564 10.554 94.8184 12.4551C94.1868 14.3561 93.8288 15.4368 93.7441 15.6973C93.666 15.9577 93.4935 16.0879 93.2266 16.0879L88.1973 16.1953C88.1257 16.1953 88.0443 16.1497 87.9531 16.0586C87.8685 15.974 87.8262 15.873 87.8262 15.7559C87.8262 15.6322 87.9629 15.2057 88.2363 14.4766C88.5163 13.7409 88.8223 12.9531 89.1543 12.1133C89.4928 11.2669 89.7988 10.3392 90.0723 9.33008C90.3522 8.31445 90.4922 7.47461 90.4922 6.81055L90.4824 6.43945C90.4824 6.11393 90.7982 5.95117 91.4297 5.95117L96.0586 5.84375C96.2279 5.84375 96.3548 5.89583 96.4395 6C96.5241 6.09766 96.5664 6.22135 96.5664 6.37109C96.5664 6.51432 96.5306 6.7487 96.459 7.07422C98.7507 6.11719 100.632 5.63867 102.104 5.63867C102.729 5.63867 103.298 5.8112 103.812 6.15625C104.385 6.54036 104.672 7.12305 104.672 7.9043C104.672 8.70508 104.369 9.75326 103.764 11.0488C103.158 12.3444 102.855 13.1452 102.855 13.4512C102.855 14.0566 103.096 14.3594 103.578 14.3594C103.884 14.3594 104.405 14.2454 105.141 14.0176C105.883 13.7832 106.43 13.5911 106.781 13.4414C107.139 13.2917 107.403 13.2168 107.572 13.2168Z" fill="black"/>
</svg>
